PathFileType	4	(X/Y/Z)	Patient4_TMGait_0pt5_01_left_13.trc.trc
DataRate	CameraRate	NumFrames	NumMarkers	Units	OrigDataRate	OrigDataStartFrame	OrigNumFrames
74.866310160428	74.866310160428	6	33	mm	74.866310160428	89	       141
Frame#	Time	L.ASIS			Sacral			L.Shoulder			Chest			R.Shoulder			Neck			R.ASIS			R.Thigh.Superior			R.Thigh.Lateral			R.Thigh.Inferior			R.Patella			L.Thigh.Superior			L.Thigh.Lateral			L.Thigh.Inferior			L.Patella			L.Shank.Superior			L.Shank.Lateral			L.Shank.Inferior			R.Shank.Superior			R.Shank.Lateral			R.Shank.Inferior			R.Heel			R.Midfoot.Superior			R.Midfoot.Lateral			R.Toe			L.Heel			L.Midfoot.Lateral			L.Midfoot.Superior			L.Toe			L.Elbow			L.Wrist			R.Elbow			R.Wrist			
		X1	Y1	Z1	X2	Y2	Z2	X3	Y3	Z3	X4	Y4	Z4	X5	Y5	Z5	X6	Y6	Z6	X7	Y7	Z7	X8	Y8	Z8	X9	Y9	Z9	X10	Y10	Z10	X11	Y11	Z11	X12	Y12	Z12	X13	Y13	Z13	X14	Y14	Z14	X15	Y15	Z15	X16	Y16	Z16	X17	Y17	Z17	X18	Y18	Z18	X19	Y19	Z19	X20	Y20	Z20	X21	Y21	Z21	X22	Y22	Z22	X23	Y23	Z23	X24	Y24	Z24	X25	Y25	Z25	X26	Y26	Z26	X27	Y27	Z27	X28	Y28	Z28	X29	Y29	Z29	X30	Y30	Z30	X31	Y31	Z31	X32	Y32	Z32	X33	Y33	Z33	

89	18.505428571429	802.131502623773	954.372003814907	339.933282462203	582.562726989149	992.250264564969	488.146122980192	748.978239399665	1431.784232183821	327.007427683213	844.161555196240	1359.138319846718	491.973100447112	747.394213649078	1423.410760816518	664.205886599576	740.054740767511	1488.585239694057	479.965775710323	808.042451103273	933.618907060292	614.295460823348	877.416686432873	749.183919197288	582.128499843154	812.020084667500	631.067305136758	640.278365381380	899.072991697453	588.841399818965	562.609871316088	913.288114700310	497.012163649484	569.998137027741	827.445428664611	728.163317964288	364.469003482656	728.785915685524	621.229001770255	300.775279821571	802.710731476666	531.262682318182	362.477249457602	789.703258071029	448.499739907706	362.813678584482	726.570388247952	390.138464010536	355.110279205868	593.059936067676	333.196409455718	302.074399304202	587.356074966851	207.018797745973	363.008395399348	884.910468084160	405.858106483586	576.161451529736	813.905175131238	300.950874383825	636.158946271806	858.679738717833	206.650489767361	575.250719014987	727.041938085078	42.467157815872	542.637027707564	896.668703162765	97.969410102861	582.970051175694	808.234698096404	36.510535701547	620.213212363064	1016.112346660335	47.039308253512	614.750424349641	403.912521665087	113.902393224589	396.839942158562	471.392408827405	82.423786869155	318.597967589242	570.076372877046	112.293775371474	342.905067822485	669.860942466896	33.111169406043	317.847499173388	759.124819437133	1083.633192230616	189.639113880659	979.373366971021	945.004433265538	176.144679184283	651.584128680531	1083.703524945674	755.907909872922	675.200051810583	823.456727438019	751.186661080738	
90	18.518785714286	801.024279207625	955.591840792653	342.219941880150	582.513038938986	993.545801440741	491.981885890821	747.548604433990	1433.340405238230	330.303390945863	844.324145831124	1360.239904427701	494.169171976396	749.338422475468	1424.139866177427	667.416636461183	740.010614546008	1489.719823254687	483.490359048620	808.838600047419	934.687722499524	616.367180814977	875.944496326474	748.256580629966	585.062766282923	808.798943388053	631.145987743274	642.385712688692	895.217985463542	588.091273768834	564.493777999602	908.269896763903	496.395573413920	571.317182321821	832.166347285042	731.118704342802	366.955572856197	738.080071159306	621.437802869573	302.666766018507	815.279623558402	533.178134209191	364.083769471066	803.474171526432	448.938667600707	363.406362409723	737.913839876833	390.904813813683	355.954631196490	601.928272906734	339.551717306636	303.486570060239	592.045670815910	213.273443301834	363.523972824267	879.555229056396	405.508609735066	577.370733784207	808.338565758172	300.705593611825	637.117740004647	852.574104491337	206.455783849848	575.819923508698	720.565425675643	42.440514076986	542.847249878326	890.148494879114	98.008344789175	583.272580001874	801.722146928152	36.478382716478	620.389536013408	1009.601027329116	47.004850118827	614.996919453179	404.856674415983	129.604812602309	397.447254673812	470.243270314655	94.080064879001	319.106353584394	570.681566398150	117.814334011242	343.137793886514	664.538801249465	32.512995927128	318.155793752391	754.676073742132	1084.282241971102	194.705514345310	968.163821269725	934.697843522439	181.711501528611	661.103928322309	1082.055838100318	760.527486808126	695.563687937480	823.050377561954	755.109769973405	
91	18.532142857143	799.678979855509	956.702282251779	344.354528709974	582.215027757147	994.851371602296	495.760855984090	745.901767073281	1434.795837343853	333.448865558006	844.400130785666	1361.232342483311	496.114568729804	751.370380992107	1424.784407107791	670.424268111601	739.908723037693	1490.780626118422	486.865861066226	809.388102107845	935.693375368444	618.316044292629	874.093874093830	747.278828802563	587.907998805567	805.222500250156	631.193852963714	644.465562875782	890.988918356101	587.339414381582	566.337498269036	902.857718829681	495.793909476128	572.635143978917	836.693896671668	734.372046838067	369.359999251626	747.389844219121	622.094746590010	304.245246219093	827.742557223341	535.712978158306	365.441747022870	817.326848838946	450.096902391853	363.844076699064	749.654257534988	392.243830413457	356.623933714696	611.486326721391	346.187073013832	304.793705764813	597.678796583215	219.956641369559	364.108914786399	873.866957450610	405.175274826539	578.590335674199	802.500366902665	300.429205804261	638.086068965559	846.297484362662	206.258656767392	576.397845209917	713.987086458051	42.419001978998	543.050735393342	883.570938314555	97.974534016072	583.534295839937	795.113189595034	36.424943426581	620.549653635459	1003.017930390987	46.818969568551	615.203956827859	407.207996019671	145.406392178215	398.257978910366	470.465809892985	106.158907293632	319.771884569273	572.418742503213	123.911011489628	343.565296289929	660.440567260626	32.228419706823	318.506721895697	750.138245992802	1084.893695797521	199.630365741083	955.972903150176	924.217859419202	187.264929445683	671.010915779931	1080.580813158682	765.192743850064	716.791793692776	823.350157330341	759.053241892872	
92	18.545500000000	798.125588580620	957.696317231829	346.338809735101	581.687081230926	996.126886134389	499.457819057823	744.084282485031	1436.117287172039	336.427012938085	844.390458445761	1362.095867959581	497.821134428624	753.443979710104	1425.338304464448	673.217535499562	739.770263579788	1491.751110815206	490.063232936786	809.703180652870	936.621574640070	620.155913302354	871.940286044375	746.312681903830	590.575673635219	801.435528099983	631.234248020269	646.492471739104	886.511372517420	586.610577645705	568.096591660921	897.182645808458	495.217654785472	573.926526857816	840.920002012850	737.904542861364	371.645601456544	756.472003460325	623.248657336697	305.517592166620	839.833425088411	538.888289881681	366.500558119607	831.001741338298	452.014683117728	364.083648289473	761.585393891410	394.163563665010	357.092117183632	621.546420765306	352.877580747086	305.969540280623	604.252612116515	226.778058004530	364.727460328005	867.966052326228	404.859753457929	579.794543923521	796.494128652811	300.141392337503	639.058350080736	839.910502005618	206.060012599256	576.969526349326	707.312596368072	42.408758518204	543.248381902404	876.942327259555	97.879391119570	583.757144461374	788.416148127980	36.361607879590	620.699133655686	996.370552265063	46.508326092488	615.372484126701	411.053869848218	160.525609587465	399.243537961992	472.277027363128	118.035986437855	320.568897749079	575.472932977881	130.295119284296	344.138960456156	658.082745498630	32.322038348864	318.852875128880	745.471192147657	1085.414018430983	204.421405341251	942.766766996184	913.704479633525	192.743539459244	681.303233941448	1079.280984645437	769.857538629451	738.791428244861	824.415699690860	762.946847835476	
93	18.558857142857	796.389304052635	958.592509628187	348.181576210769	580.958528459858	997.347140671722	503.056401690061	742.150298885849	1437.291492872951	339.226736539651	844.299829407606	1362.829517377176	499.309657244413	755.516634058162	1425.817719402827	675.795125402492	739.619427841140	1492.631320107956	493.058130706593	809.802716001762	937.468018298520	621.898527272704	869.551405343225	745.410014492165	592.998085322966	797.545584864713	631.286583678197	648.441174032842	881.882155962715	585.920338934399	569.738259381481	891.345580604154	494.676668776007	575.165351773222	844.755736468336	741.696480979103	373.772391526402	765.103728756316	624.924435590282	306.507962349394	851.326640017961	542.698485791478	367.222079033694	844.269866222312	454.705848164954	364.088315398816	773.524315593779	396.647453663826	357.339145828760	631.936227269560	359.365841048719	306.986197596084	611.792627063053	233.404363062531	365.327232104063	861.946864500364	404.567889535382	580.958688927954	790.397987507326	299.863185657701	640.020732822573	833.463694572121	205.867887217970	577.522867886027	700.560412303642	42.413287300219	543.439625875240	870.274446790579	97.742978257732	583.947755990082	781.651140376231	36.298631719250	620.842103171937	989.673806527804	46.117706605466	615.508273269593	416.479846935506	174.146259615105	400.350282030549	475.894062153157	129.028012038100	321.445826514517	580.057487927265	136.603755203835	344.780759885712	658.007320542461	32.814270222739	319.127407853039	740.620984259682	1085.813911279718	209.094392168155	928.517644417625	903.309541476358	198.086753947076	691.975792591452	1078.179143236873	774.471634425808	761.468852055880	826.322213641030	766.703842264276	
94	18.572214285714	794.489579429944	959.428949923236	349.897601098777	580.066529769375	998.501348668449	506.548496850367	740.155169179058	1438.322371684275	341.843538738517	844.136502894409	1363.447480180470	500.606848247150	757.553823959328	1426.254892870164	678.163767620481	739.479965732873	1493.433780545182	495.833155778652	809.710159763911	938.234337745923	623.551591316582	866.982822283639	744.605769388161	595.131770821996	793.618748507427	631.364256543883	650.286332142128	877.164362904326	585.274789168377	571.240438562433	885.412285929055	494.178466582778	576.325596756500	848.137449253703	745.724169691980	375.702028241035	773.099877090968	627.117236547001	307.256380007540	862.045607819233	547.106831938094	367.591903573081	856.939388387391	458.154080893692	363.842600596462	785.319556562449	399.651987015144	357.359062780078	642.513039238348	365.377563066110	307.818007842267	620.351755597993	239.485217260514	365.845454931453	855.872959632371	404.307045273496	582.059655378451	784.260947675290	299.613492331720	640.952613162642	826.993620739039	205.693742929689	578.047727611145	693.755120731682	42.433369344610	543.621839949609	863.581244934411	97.588104097036	584.114022911501	774.843425249357	36.243897349602	620.980336814875	982.945400546599	45.698007850632	615.619144910386	423.572963105574	185.486684098437	401.500396967235	481.523758043739	138.456670393816	322.325581345953	586.398073867279	142.433326169182	345.390477369018	660.734346482167	33.671119708307	319.245747084297	735.526765478835	1086.089284556915	213.667095836934	913.211561419203	893.192842090300	203.237816089847	703.013963256798	1077.315138148076	778.983581403881	784.725090920147	829.158210383956	770.225008069420	
